<?xml version="1.0" encoding="UTF-8"?>
<svg width="175px" height="470px" viewBox="0 0 175 470" version="1.1" xmlns="http://www.w3.org/2000/svg" xmlns:xlink="http://www.w3.org/1999/xlink">
    <title>no-data</title>
    <defs>
        <polygon id="path-1" points="0 0.0797373626 6.60739162 0.0797373626 6.60739162 6.71664692 0 6.71664692"></polygon>
    </defs>
    <g id="Page-1" stroke="none" stroke-width="1" fill="none" fill-rule="evenodd" opacity="0.600000024">
        <g id="no-data">
            <g id="symbols">
                <g id="Widget/Biodiversity_intacness_nodata3">
                    <g id="Group-9">
                        <g id="Group-6">
                            <g id="Group-2">
                                <g id="Group-37">
                                    <g id="Group-36">
                                        <path d="M117.533328,205.468208 C114.866438,205.468208 112.696731,207.647622 112.696731,210.326223 C112.696731,213.005266 114.866438,215.18446 117.533328,215.18446 C120.199998,215.18446 122.369705,213.005266 122.369705,210.326223 C122.369705,207.647622 120.199998,205.468208 117.533328,205.468208 M117.533328,208.339636 C118.625548,208.339636 119.511066,209.229117 119.511066,210.326223 C119.511066,211.423551 118.625548,212.313031 117.533328,212.313031 C116.440888,212.313031 115.55537,211.423551 115.55537,210.326223 C115.55537,209.229117 116.440888,208.339636 117.533328,208.339636" id="Fill-1" fill="#ADB5BD" fill-rule="nonzero"></path>
                                        <path d="M117.065227,225.984366 C118.279791,225.984366 119.264058,224.995451 119.264058,223.775698 C119.264058,222.5557 118.279791,221.566784 117.065227,221.566784 C115.850663,221.566784 114.866152,222.5557 114.866152,223.775698 C114.866152,224.995451 115.850663,225.984366 117.065227,225.984366" id="Fill-3" fill="#ADB5BD" fill-rule="nonzero" opacity="0.800000012"></path>
                                        <path d="M115.776575,239.211447 C116.991139,239.211447 117.975405,238.222777 117.975405,237.002779 C117.975405,235.782781 116.991139,234.793865 115.776575,234.793865 C114.56201,234.793865 113.577499,235.782781 113.577499,237.002779 C113.577499,238.222777 114.56201,239.211447 115.776575,239.211447" id="Fill-5" fill="#ADB5BD" fill-rule="nonzero" opacity="0.5"></path>
                                        <path d="M113.798704,251.8695 C115.013269,251.8695 115.99778,250.880584 115.99778,249.660586 C115.99778,248.440587 115.013269,247.451917 113.798704,247.451917 C112.58414,247.451917 111.599629,248.440587 111.599629,249.660586 C111.599629,250.880584 112.58414,251.8695 113.798704,251.8695" id="Fill-7" fill="#ADB5BD" fill-rule="nonzero" opacity="0.200000003"></path>
                                        <path d="M85.026178,86.8791209 L88.2912346,91.862787 C103.86268,119.894335 114.86624,149.137627 117.170962,182.122168 L117.219119,185.723823" id="Stroke-11" stroke="#ADB5BD" opacity="0.200000003"></path>
                                        <path d="M117,189 C118.104321,189 119,188.104183 119,186.999691 C119,185.8952 118.104321,185 117,185 C115.895679,185 115,185.8952 115,186.999691 C115,188.104183 115.895679,189 117,189" id="Fill-13" fill="#ADB5BD" fill-rule="nonzero"></path>
                                        <path d="M108.57796,138.155517 C108.971353,138.155517 109.290421,137.835242 109.290421,137.439868 C109.290421,137.044716 108.971353,136.724441 108.57796,136.724441 C108.184568,136.724441 107.865499,137.044716 107.865499,137.439868 C107.865499,137.835242 108.184568,138.155517 108.57796,138.155517" id="Fill-15" fill="#ADB5BD" fill-rule="nonzero"></path>
                                        <path d="M112.325636,29.9214122 C112.325636,29.9214122 124.631196,34.1000034 139.388149,43.1028155" id="Stroke-19" stroke="#ADB5BD" stroke-width="5" opacity="0.200000003" stroke-linecap="round"></path>
                                        <path d="M112.320358,33.2292758 C114.141915,33.2292758 115.618787,31.7457955 115.618787,29.916089 C115.618787,28.0861619 114.141915,26.6029022 112.320358,26.6029022 C110.498582,26.6029022 109.021929,28.0861619 109.021929,29.916089 C109.021929,31.7457955 110.498582,33.2292758 112.320358,33.2292758" id="Fill-21" fill="#ADB5BD" fill-rule="nonzero"></path>
                                        <path d="M65.6105529,59.9446718 C44.0608147,29.6884289 3.30366283,3.5394333 3.30366283,3.5394333" id="Stroke-23" stroke="#ADB5BD" stroke-width="5" opacity="0.200000003" stroke-linecap="round" stroke-linejoin="round"></path>
                                        <g id="Group-27" transform="translate(0.000000, 0.141363)">
                                            <g id="Fill-25-Clipped">
                                                <mask id="mask-2" fill="white">
                                                    <use xlink:href="#path-1"></use>
                                                </mask>
                                                <g id="path-1"></g>
                                                <path d="M3.29840733,6.70604473 C5.12018359,6.70604473 6.59683665,5.22256445 6.59683665,3.39285791 C6.59683665,1.56315138 5.12018359,0.0796710989 3.29840733,0.0796710989 C1.47685062,0.0796710989 -2.19888516e-05,1.56315138 -2.19888516e-05,3.39285791 C-2.19888516e-05,5.22256445 1.47685062,6.70604473 3.29840733,6.70604473" id="Fill-25" fill="#ADB5BD" fill-rule="nonzero" mask="url(#mask-2)"></path>
                                            </g>
                                        </g>
                                        <path d="M86.4921466,332.721853 C86.4921466,332.721853 88.3890164,328.71933 91.0159385,322.793919 M93.405896,317.323418 C97.879837,306.925821 103.271636,293.460086 105.501435,284.197802" id="Shape" stroke="#ADB5BD" opacity="0.200000003" stroke-linecap="round"></path>
                                        <path d="M105.539481,285.5607 C106.754046,285.5607 107.738312,284.571784 107.738312,283.352032 C107.738312,282.132033 106.754046,281.143118 105.539481,281.143118 C104.324917,281.143118 103.340406,282.132033 103.340406,283.352032 C103.340406,284.571784 104.324917,285.5607 105.539481,285.5607" id="Fill-30" fill="#ADB5BD" fill-rule="nonzero"></path>
                                        <path d="M35.7625162,468.955662 C35.7625162,468.955662 37.9701916,439.078464 64.8892448,380.114873" id="Stroke-32" stroke="#ADB5BD" stroke-width="2" stroke-linecap="round"></path>
                                        <path d="M95.2513089,358.542033 C95.2513089,369.917308 86.0706806,379.139011 74.7460733,379.139011 C63.4212461,379.139011 54.2408377,369.917308 54.2408377,358.542033 C54.2408377,347.166537 63.4212461,337.945055 74.7460733,337.945055 C86.0706806,337.945055 95.2513089,347.166537 95.2513089,358.542033" id="Fill-34" fill="#ADB5BD" fill-rule="nonzero" opacity="0.100000001"></path>
                                    </g>
                                </g>
                                <path d="M92,323 C93.6569205,323 95,321.656846 95,320.000167 C95,318.343154 93.6569205,317 92,317 C90.3430795,317 89,318.343154 89,320.000167 C89,321.656846 90.3430795,323 92,323" id="Fill-9" stroke="#ADB5BD" stroke-width="2"></path>
                                <path d="M160,279 C154.726233,293.763801 148.059566,310.097135 140,328" id="Path" stroke="#ADB5BD" opacity="0.200000003" stroke-linecap="round"></path>
                                <path d="M160.5,281 C162.433107,281 164,279.432874 164,277.5 C164,275.567126 162.433107,274 160.5,274 C158.567126,274 157,275.567126 157,277.5 C157,279.432874 158.567126,281 160.5,281" id="Fill-25" fill="#ADB5BD" fill-rule="nonzero"></path>
                                <path d="M134,338 C135.104633,338 136,337.104499 136,336 C136,334.895501 135.104633,334 134,334 C132.895501,334 132,334.895501 132,336 C132,337.104499 132.895501,338 134,338" id="Fill-25" fill="#ADB5BD" fill-rule="nonzero"></path>
                                <path d="M129,348 C130.104633,348 131,347.104499 131,346 C131,344.895501 130.104633,344 129,344 C127.895501,344 127,344.895501 127,346 C127,347.104499 127.895501,348 129,348" id="Fill-25" fill="#ADB5BD" fill-rule="nonzero"></path>
                                <path d="M173.777778,224 C174.814815,197.139535 172.222222,176.139535 166,161" id="Path-4" stroke="#ADB5BD" opacity="0.5" stroke-dasharray="2,4"></path>
                            </g>
                        </g>
                    </g>
                </g>
            </g>
        </g>
    </g>
</svg>