<svg xmlns="http://www.w3.org/2000/svg" width="52" height="56" viewBox="0 0 52 56" xmlns:xlink="http://www.w3.org/1999/xlink">
  <defs>
    <path id="b" d="M17.4665504,41.7040058 C7.55101632,40.0239706 0,31.3938025 0,21 C0,9.40202025 9.40202025,2.84217094e-14 21,2.84217094e-14 C32.5979797,2.84217094e-14 42,9.40202025 42,21 C42,31.5126804 34.2752682,40.221153 24.1923061,41.7589162 L20.8571429,45.0628622 L17.4665504,41.7040058 Z"/>
    <filter id="a" width="135.7%" height="135.1%" x="-17.9%" y="-16.6%" filterUnits="objectBoundingBox">
      <feMorphology radius="1" operator="dilate" in="SourceAlpha" result="shadowSpreadOuter1"/>
      <feOffset in="shadowSpreadOuter1" result="shadowOffsetOuter1"/>
      <feGaussianBlur stdDeviation="1.5" in="shadowOffsetOuter1" result="shadowBlurOuter1"/>
      <feColorMatrix values="0 0 0 0 0 0 0 0 0 0 0 0 0 0 0 0 0 0 0.8 0" in="shadowBlurOuter1"/>
    </filter>
  </defs>
  <g fill="none" fill-rule="evenodd" transform="translate(5 5)">
    <use fill="black" filter="url(#a)" xlink:href="#b"/>
    <use fill="#FFFFFF" xlink:href="#b"/>
    <g fill="#000000" fill-rule="nonzero" transform="translate(9 16)">
      <path d="M22.9807407,3.44555556 C22.9711481,3.43233333 22.9584444,3.41962963 22.9483333,3.40614815 C21.9001481,2.11944444 20.1358889,1.46325926 18.5940741,1.01551852 C16.7325926,0.473666667 14.7922963,0.208962963 12.8584815,0.127296296 C10.9150741,0.0453703704 8.95559259,0.150111111 7.03785185,0.480148148 C5.26762963,0.786592593 3.43518519,1.27011111 1.89622222,2.22703704 C1.21774074,2.64885185 0.544703704,3.20677778 0.214666667,3.95837037 C0.0642962963,4.30111111 0.0155555556,4.67340741 0.0547037037,5.03948148 C0.116925926,5.48722222 0.139740741,5.957 0.286740741,6.38840741 C0.757037037,7.77674074 2.28537037,8.9657037 3.55288889,9.51118519 C5.14733333,10.1997778 6.86492593,10.6145926 8.60896296,10.8271852 L8.60896296,13.8485926 L15.0538889,8.65174074 L8.60896296,3.46137037 L8.60896296,7.14259259 C8.59937037,7.14259259 8.58977778,7.13948148 8.58303704,7.13948148 C7.67822222,6.98262963 6.783,6.7607037 5.93418519,6.42055556 C5.19581481,6.12681481 4.43177778,5.73844444 3.9117037,5.12477778 C3.77144444,4.95418519 3.58918519,4.75507407 3.66411111,4.53288889 C3.69288889,4.43825926 3.73540741,4.34362963 3.78518519,4.25548148 C3.97159259,3.91274074 4.25159259,3.6317037 4.56244444,3.39655556 C5.81674074,2.42977778 7.53122222,2.04088889 9.06059259,1.82181481 C10.8567407,1.56774074 12.7148519,1.5737037 14.5084074,1.85111111 C15.6680741,2.02792593 16.8311111,2.30896296 17.8984815,2.80518519 C18.5354815,3.10203704 19.1465556,3.48418519 19.5974074,4.02966667 C19.766963,4.25185185 20.0542222,4.63477778 19.8976296,4.90933333 C19.7052593,5.24507407 19.411,5.51651852 19.1006667,5.74181481 C18.597963,6.10477778 18.0332963,6.37933333 17.4382963,6.59451852 C17.4382963,6.59451852 16.4899259,6.97485185 16.4538889,8.82544444 C16.4235556,10.3861852 17.4382963,10.4512593 17.4382963,10.4512593 C18.8854815,10.1217407 20.1631111,9.56148148 21.3175926,8.68 C23.5511111,6.97459259 23.4842222,5.51625926 23.5303704,5.21551852 C23.6211111,4.60133333 23.4059259,4.011 23.0432222,3.52437037 C23.0201481,3.49818519 23.000963,3.472 22.9807407,3.44555556 Z"/>
    </g>
  </g>
</svg>
