<svg xmlns="http://www.w3.org/2000/svg" width="52" height="56" viewBox="0 0 52 56" xmlns:xlink="http://www.w3.org/1999/xlink">
  <defs>
    <path id="b" d="M17.4665504,41.7040058 C7.55101632,40.0239706 0,31.3938025 0,21 C0,9.40202025 9.40202025,2.84217094e-14 21,2.84217094e-14 C32.5979797,2.84217094e-14 42,9.40202025 42,21 C42,31.5126804 34.2752682,40.221153 24.1923061,41.7589162 L20.8571429,45.0628622 L17.4665504,41.7040058 Z"/>
    <filter id="a" width="135.7%" height="135.1%" x="-17.9%" y="-16.6%" filterUnits="objectBoundingBox">
      <feMorphology radius="1" operator="dilate" in="SourceAlpha" result="shadowSpreadOuter1"/>
      <feOffset in="shadowSpreadOuter1" result="shadowOffsetOuter1"/>
      <feGaussianBlur stdDeviation="1.5" in="shadowOffsetOuter1" result="shadowBlurOuter1"/>
      <feColorMatrix values="0 0 0 0 0 0 0 0 0 0 0 0 0 0 0 0 0 0 0.8 0" in="shadowBlurOuter1"/>
    </filter>
  </defs>
  <g fill="none" fill-rule="evenodd" transform="translate(5 5)">
    <use fill="black" filter="url(#a)" xlink:href="#b"/>
    <use fill="#FFFFFF" xlink:href="#b"/>
    <g fill="#000000" fill-rule="nonzero" transform="translate(12 14)">
      <path d="M11.0728421.0590075188C10.8914887-.0330225564 10.6738647-.0167819549 10.5087519.103398496L4.6962406 4.33082707.541353383 4.33082707C.241984962 4.33082707 0 4.57281203 0 4.87218045L0 10.2857143C0 10.5850827.241984962 10.8270677.541353383 10.8270677L4.6962406 10.8270677 10.5087519 15.0544962C10.6029474 15.1232481 10.7150075 15.1578947 10.8270677 15.1578947 10.9109774 15.1578947 10.9954286 15.138406 11.0728421 15.0988872 11.2541955 15.0068571 11.3684211 14.8200902 11.3684211 14.6165414L11.3684211.541353383C11.3684211.337804511 11.2541955.151037594 11.0728421.0590075188zM13.5722707 4.87218045L13.1895338 4.48944361 12.4240602 5.25491729 12.806797 5.63765414C13.877594 6.70845113 13.877594 8.44944361 12.806797 9.5202406L12.4240602 9.90297744 13.1895338 10.6684511 13.5722707 10.2857143C15.064782 8.79320301 15.064782 6.36469173 13.5722707 4.87218045z"/>
      <path d="M15.0490827,2.62989474 L14.283609,3.39536842 L14.6663459,3.77810526 C15.6819248,4.79314286 16.2406015,6.1432782 16.2406015,7.57894737 C16.2406015,9.01461654 15.6819248,10.3647519 14.6663459,11.3797895 L14.283609,11.7625263 L15.0490827,12.528 L15.4318195,12.1452632 C16.6514887,10.925594 17.3233083,9.3042406 17.3233083,7.57894737 C17.3233083,5.85365414 16.6514887,4.23230075 15.4318195,3.01263158 L15.0490827,2.62989474 Z"/>
    </g>
  </g>
</svg>
