<?xml version="1.0" encoding="UTF-8"?>
<svg width="75px" height="80px" viewBox="0 0 75 80" version="1.1" xmlns="http://www.w3.org/2000/svg" xmlns:xlink="http://www.w3.org/1999/xlink">
    <!-- Generator: Sketch 55.2 (78181) - https://sketchapp.com -->
    <title>Group</title>
    <desc>Created with Sketch.</desc>
    <defs>
        <path d="M22.8834927,57.9178472 C9.66339162,55.2177955 -0.282608696,43.5228314 -0.282608696,29.5048545 C-0.282608696,13.4885967 12.7011336,0.50485445 28.7173913,0.50485445 C44.733649,0.50485445 57.7173913,13.4885967 57.7173913,29.5048545 C57.7173913,43.2658929 48.1326542,54.788296 35.274891,57.760353 L29,64 L22.8834927,57.9178472 Z" id="path-1"></path>
        <filter x="-25.5%" y="-18.7%" width="150.0%" height="144.5%" filterUnits="objectBoundingBox" id="filter-2">
            <feOffset dx="0" dy="2" in="SourceAlpha" result="shadowOffsetOuter1"></feOffset>
            <feGaussianBlur stdDeviation="4.5" in="shadowOffsetOuter1" result="shadowBlurOuter1"></feGaussianBlur>
            <feColorMatrix values="0 0 0 0 0   0 0 0 0 0   0 0 0 0 0  0 0 0 0.5 0" type="matrix" in="shadowBlurOuter1"></feColorMatrix>
        </filter>
    </defs>
    <g id="Page-1" stroke="none" stroke-width="1" fill="none" fill-rule="evenodd">
        <g id="Group" transform="translate(9.000000, 6.000000)">
            <g id="Combined-Shape">
                <use fill="black" fill-opacity="1" filter="url(#filter-2)" xlink:href="#path-1"></use>
                <use fill="#FFCD00" fill-rule="evenodd" xlink:href="#path-1"></use>
            </g>
            <path d="M29.499933,28.6409704 L29.4670897,28.6409704 L17.5279005,39.6441286 L14.5011276,39.6441286 C14.1968249,39.6441286 13.962733,39.3805455 14.00496,39.0851025 L16.3380032,22.730468 C16.3716843,22.4941464 16.57796,22.3182601 16.8214357,22.3182601 L18.2819546,22.3182601 L18.2819546,20.183319 L17.5530357,20.183319 C17.3770897,20.183319 17.2346573,20.0435624 17.2346573,19.8712891 L17.2346573,18.9762561 C17.2346573,18.8039828 17.3770897,18.6642262 17.5530357,18.6642262 L23.4931384,18.6642262 C23.6690843,18.6642262 23.8116843,18.8039828 23.8116843,18.9762561 L23.8116843,19.8712891 C23.8116843,20.0435624 23.6690843,20.183319 23.4931384,20.183319 L22.8900627,20.183319 L22.8900627,22.4003732 L24.1612303,22.4003732 C24.4308465,22.4003732 24.6495222,22.6146885 24.6495222,22.8789285 L24.6495222,24.9048234 L29.4580411,24.9048234 L29.5089816,24.9048234 L34.3175005,24.9048234 L34.3175005,22.8789285 C34.3175005,22.6146885 34.5361762,22.4003732 34.8057924,22.4003732 L36.07696,22.4003732 L36.07696,20.183319 L35.4737168,20.183319 C35.2979384,20.183319 35.1553384,20.0435624 35.1553384,19.8712891 L35.1553384,18.9762561 C35.1553384,18.8039828 35.2979384,18.6642262 35.4737168,18.6642262 L41.4141546,18.6642262 C41.5897654,18.6642262 41.7323654,18.8039828 41.7323654,18.9762561 L41.7323654,19.8712891 C41.7323654,20.0435624 41.5897654,20.183319 41.4141546,20.183319 L40.6850681,20.183319 L40.6850681,22.3182601 L42.145587,22.3182601 C42.3890627,22.3182601 42.5953384,22.4941464 42.629187,22.730468 L44.9620627,39.0851025 C45.0042897,39.3805455 44.7701978,39.6441286 44.4658951,39.6441286 L41.4391222,39.6441286 L29.499933,28.6409704 Z M34.1918249,38.6183551 L34.1918249,33.7730241 L40.4756086,39.3977728 L34.9872681,39.3977728 C34.5480735,39.3977728 34.1918249,39.0487921 34.1918249,38.6183551 Z M31.7625811,23.919466 L27.2044081,23.919466 C26.9592568,23.919466 26.7605216,23.7246937 26.7605216,23.4845949 L26.7605216,22.8352443 C26.7605216,22.5951456 26.9592568,22.4003732 27.2044081,22.4003732 L31.7625811,22.4003732 C32.0077324,22.4003732 32.2064676,22.5951456 32.2064676,22.8352443 L32.2064676,23.4845949 C32.2064676,23.7246937 32.0077324,23.919466 31.7625811,23.919466 Z M18.4913638,39.3977893 L24.7751476,33.7730405 L24.7751476,38.6183715 C24.7751476,39.0488085 24.4190665,39.3977893 23.9798719,39.3977893 L18.4913638,39.3977893 Z" id="Combined-Shape" fill="#000000"></path>
        </g>
    </g>
</svg>