<svg xmlns="http://www.w3.org/2000/svg" width="52" height="56" viewBox="0 0 52 56" xmlns:xlink="http://www.w3.org/1999/xlink">
  <defs>
    <path id="b" d="M17.4665504,41.7040058 C7.55101632,40.0239706 0,31.3938025 0,21 C0,9.40202025 9.40202025,2.84217094e-14 21,2.84217094e-14 C32.5979797,2.84217094e-14 42,9.40202025 42,21 C42,31.5126804 34.2752682,40.221153 24.1923061,41.7589162 L20.8571429,45.0628622 L17.4665504,41.7040058 Z"/>
    <filter id="a" width="135.7%" height="135.1%" x="-17.9%" y="-16.6%" filterUnits="objectBoundingBox">
      <feMorphology radius="1" operator="dilate" in="SourceAlpha" result="shadowSpreadOuter1"/>
      <feOffset in="shadowSpreadOuter1" result="shadowOffsetOuter1"/>
      <feGaussianBlur stdDeviation="1.5" in="shadowOffsetOuter1" result="shadowBlurOuter1"/>
      <feColorMatrix values="0 0 0 0 0 0 0 0 0 0 0 0 0 0 0 0 0 0 0.8 0" in="shadowBlurOuter1"/>
    </filter>
  </defs>
  <g fill="none" fill-rule="evenodd" transform="translate(5 5)">
    <use fill="black" filter="url(#a)" xlink:href="#b"/>
    <use fill="#FFFFFF" xlink:href="#b"/>
    <g fill="#000000" fill-rule="nonzero" transform="translate(12 13)">
      <path d="M16.3512195,2.53658537 L13.4829268,2.53658537 L12.604878,0.780487805 C12.4097561,0.390243902 12,0.136585366 11.5512195,0.136585366 L7.1804878,0.136585366 C6.73170732,0.136585366 6.32195122,0.390243902 6.12682927,0.780487805 L5.24878049,2.53658537 L2.3804878,2.53658537 C1.11219512,2.53658537 0.0975609756,3.55121951 0.0975609756,4.8 L0.0975609756,13.6195122 C0.0975609756,14.8682927 1.11219512,15.902439 2.3804878,15.902439 L16.3707317,15.902439 C17.6195122,15.902439 18.6536585,14.8878049 18.6536585,13.6195122 L18.6536585,4.8 C18.6341463,3.55121951 17.6195122,2.53658537 16.3512195,2.53658537 Z M9.36585366,13.3463415 C6.90731707,13.3463415 4.91707317,11.3560976 4.91707317,8.89756098 C4.91707317,6.43902439 6.90731707,4.46829268 9.36585366,4.46829268 C11.8243902,4.46829268 13.8146341,6.45853659 13.8146341,8.91707317 C13.8146341,11.3756098 11.8243902,13.3463415 9.36585366,13.3463415 Z"/>
      <path d="M9.36585366,5.87317073 C7.70731707,5.87317073 6.34146341,7.23902439 6.34146341,8.89756098 C6.34146341,10.5560976 7.70731707,11.9219512 9.36585366,11.9219512 C11.0243902,11.9219512 12.3902439,10.5560976 12.3902439,8.89756098 C12.3902439,7.23902439 11.0243902,5.87317073 9.36585366,5.87317073 Z"/>
    </g>
  </g>
</svg>
