<svg xmlns="http://www.w3.org/2000/svg" width="52" height="56" viewBox="0 0 52 56" xmlns:xlink="http://www.w3.org/1999/xlink">
  <defs>
    <path id="b" d="M17.4665504,41.7040058 C7.55101632,40.0239706 0,31.3938025 0,21 C0,9.40202025 9.40202025,2.84217094e-14 21,2.84217094e-14 C32.5979797,2.84217094e-14 42,9.40202025 42,21 C42,31.5126804 34.2752682,40.221153 24.1923061,41.7589162 L20.8571429,45.0628622 L17.4665504,41.7040058 Z"/>
    <filter id="a" width="135.7%" height="135.1%" x="-17.9%" y="-16.6%" filterUnits="objectBoundingBox">
      <feMorphology radius="1" operator="dilate" in="SourceAlpha" result="shadowSpreadOuter1"/>
      <feOffset in="shadowSpreadOuter1" result="shadowOffsetOuter1"/>
      <feGaussianBlur stdDeviation="1.5" in="shadowOffsetOuter1" result="shadowBlurOuter1"/>
      <feColorMatrix values="0 0 0 0 0 0 0 0 0 0 0 0 0 0 0 0 0 0 0.8 0" in="shadowBlurOuter1"/>
    </filter>
  </defs>
  <g fill="none" fill-rule="evenodd" transform="translate(5 5)">
    <use fill="black" filter="url(#a)" xlink:href="#b"/>
    <use fill="#FFFFFF" xlink:href="#b"/>
    <g fill="#000000" fill-rule="nonzero" transform="translate(13 13)">
      <path d="M11.5892857,5.26785714 C11.5892857,4.63571429 11.1678571,4.21428571 10.5357143,4.21428571 L8.42857143,4.21428571 L8.42857143,1.05357143 C8.42857143,0.421428571 8.00714286,0 7.375,0 L2.10714286,0 L2.10714286,2.10714286 L6.32142857,2.10714286 L6.32142857,4.21428571 L1.05357143,4.21428571 C0.421428571,4.21428571 0,4.63571429 0,5.26785714 L0,13.6964286 C0,14.3285714 0.421428571,14.75 1.05357143,14.75 L10.5357143,14.75 C11.1678571,14.75 11.5892857,14.3285714 11.5892857,13.6964286 L11.5892857,11.5892857 L16.8571429,13.6964286 L16.8571429,5.26785714 L11.5892857,7.375 L11.5892857,5.26785714 Z"/>
    </g>
  </g>
</svg>
