<?xml version="1.0" encoding="UTF-8"?>
<svg width="100px" height="20px" viewBox="0 0 100 20" version="1.1" xmlns="http://www.w3.org/2000/svg" xmlns:xlink="http://www.w3.org/1999/xlink">
    <title>marapp</title>
    <g id="marapp" stroke="none" stroke-width="1" fill="none" fill-rule="evenodd">
        <g id="logo">
            <path d="M15.9,15.39 C15.64,14.59 14.89,14 14,14 L13,14 L13,11 C13,10.4477153 12.5522847,10 12,10 L6,10 L6,8 L8,8 C8.55228475,8 9,7.55228475 9,7 L9,5 L11,5 C12.1045695,5 13,4.1045695 13,3 L13,2.59 C15.93,3.77 18,6.64 18,10 C18,12.08 17.2,13.97 15.9,15.39 M9,17.93 C5.05,17.44 2,14.08 2,10 C2,9.38 2.08,8.78 2.21,8.21 L7,13 L7,14 C7,15.1045695 7.8954305,16 9,16 M10,0 C4.4771525,0 0,4.4771525 0,10 C0,12.6521649 1.0535684,15.195704 2.92893219,17.0710678 C4.80429597,18.9464316 7.3478351,20 10,20 C12.6521649,20 15.195704,18.9464316 17.0710678,17.0710678 C18.9464316,15.195704 20,12.6521649 20,10 C20,7.3478351 18.9464316,4.80429597 17.0710678,2.92893219 C15.195704,1.0535684 12.6521649,0 10,0 Z" id="Shape" fill="#F8F9FA"></path>
            <path d="M32.5390625,15 L32.5390625,11.953125 L32.3803711,7.88427734 L35.1035156,15 L36.2524414,15 L38.9819336,7.87792969 L38.8232422,11.953125 L38.8232422,15 L40.4228516,15 L40.4228516,5.7578125 L38.347168,5.7578125 L35.6875,12.8417969 L33.0214844,5.7578125 L30.9394531,5.7578125 L30.9394531,15 L32.5390625,15 Z M45.8792969,15 L46.6283203,12.8481445 L50.2083984,12.8481445 L50.9637695,15 L52.6395508,15 L49.1419922,5.7578125 L47.7010742,5.7578125 L44.2098633,15 L45.8792969,15 Z M49.7577148,11.5532227 L47.0790039,11.5532227 L48.4183594,7.71923828 L49.7577148,11.5532227 Z M57.8928711,15 L57.8928711,11.4389648 L59.6829102,11.4389648 L61.5364258,15 L63.2566406,15 L63.2566406,14.9174805 L61.180957,11.0644531 C61.7141602,10.8401693 62.1299316,10.5196126 62.4282715,10.1027832 C62.7266113,9.68595378 62.8757813,9.16861979 62.8757813,8.55078125 C62.8757813,7.64518229 62.5859049,6.95328776 62.0061523,6.47509766 C61.4263997,5.99690755 60.6033203,5.7578125 59.5369141,5.7578125 L59.5369141,5.7578125 L56.2869141,5.7578125 L56.2869141,15 L57.8928711,15 Z M59.5432617,10.1503906 L57.8928711,10.1503906 L57.8928711,7.05273438 L59.5876953,7.05273438 C60.1462891,7.06119792 60.5662923,7.20084635 60.8477051,7.47167969 C61.1291178,7.74251302 61.2698242,8.12548828 61.2698242,8.62060547 C61.2698242,9.0945638 61.1174805,9.46801758 60.812793,9.7409668 C60.5081055,10.013916 60.0849284,10.1503906 59.5432617,10.1503906 L59.5432617,10.1503906 Z M67.843457,15 L68.5924805,12.8481445 L72.1725586,12.8481445 L72.9279297,15 L74.6037109,15 L71.1061523,5.7578125 L69.6652344,5.7578125 L66.1740234,15 L67.843457,15 Z M71.721875,11.5532227 L69.0431641,11.5532227 L70.3825195,7.71923828 L71.721875,11.5532227 Z M79.8570313,15 L79.8570313,11.565918 L81.7676758,11.565918 C82.8383138,11.565918 83.6709147,11.3141276 84.2654785,10.8105469 C84.8600423,10.3069661 85.1573242,9.6023763 85.1573242,8.69677734 C85.1573242,7.81233724 84.8536947,7.10139974 84.2464355,6.56396484 C83.6391764,6.02652995 82.8192708,5.7578125 81.7867188,5.7578125 L81.7867188,5.7578125 L78.2510742,5.7578125 L78.2510742,15 L79.8570313,15 Z M81.7867188,10.2773438 L79.8570313,10.2773438 L79.8570313,7.05273438 L81.8311523,7.05273438 C82.3643555,7.06119792 82.7833008,7.21459961 83.0879883,7.51293945 C83.3926758,7.8112793 83.5450195,8.2101237 83.5450195,8.70947266 C83.5450195,9.21728516 83.3947917,9.60555013 83.0943359,9.87426758 C82.7938802,10.142985 82.3580078,10.2773438 81.7867188,10.2773438 L81.7867188,10.2773438 Z M90.7661133,15 L90.7661133,11.565918 L92.6767578,11.565918 C93.7473958,11.565918 94.5799967,11.3141276 95.1745605,10.8105469 C95.7691243,10.3069661 96.0664062,9.6023763 96.0664062,8.69677734 C96.0664062,7.81233724 95.7627767,7.10139974 95.1555176,6.56396484 C94.5482585,6.02652995 93.7283529,5.7578125 92.6958008,5.7578125 L92.6958008,5.7578125 L89.1601562,5.7578125 L89.1601562,15 L90.7661133,15 Z M92.6958008,10.2773438 L90.7661133,10.2773438 L90.7661133,7.05273438 L92.7402344,7.05273438 C93.2734375,7.06119792 93.6923828,7.21459961 93.9970703,7.51293945 C94.3017578,7.8112793 94.4541016,8.2101237 94.4541016,8.70947266 C94.4541016,9.21728516 94.3038737,9.60555013 94.003418,9.87426758 C93.7029622,10.142985 93.2670898,10.2773438 92.6958008,10.2773438 L92.6958008,10.2773438 Z" id="MARAPP" fill="#FFFFFF" fill-rule="nonzero"></path>
        </g>
    </g>
</svg>